<svg width="100" height="100" xmlns="http://www.w3.org/2000/svg">
  <defs>
    <pattern id="paw-pattern" patternUnits="userSpaceOnUse" width="100" height="100">
      <path d="M30,25 C32,18 38,18 40,25 C42,32 38,36 35,36 C32,36 28,32 30,25 Z" fill="#333333" />
      <path d="M25,35 C27,28 33,28 35,35 C37,42 33,46 30,46 C27,46 23,42 25,35 Z" fill="#333333" />
      <path d="M35,35 C37,28 43,28 45,35 C47,42 43,46 40,46 C37,46 33,42 35,35 Z" fill="#333333" />
      <path d="M32,46 C37,46 40,54 35,58 C30,62 23,58 24,52 C25,46 27,46 32,46 Z" fill="#333333" />
      
      <path d="M70,65 C72,58 78,58 80,65 C82,72 78,76 75,76 C72,76 68,72 70,65 Z" fill="#333333" />
      <path d="M65,75 C67,68 73,68 75,75 C77,82 73,86 70,86 C67,86 63,82 65,75 Z" fill="#333333" />
      <path d="M75,75 C77,68 83,68 85,75 C87,82 83,86 80,86 C77,86 73,82 75,75 Z" fill="#333333" />
      <path d="M72,86 C77,86 80,94 75,98 C70,102 63,98 64,92 C65,86 67,86 72,86 Z" fill="#333333" />
    </pattern>
  </defs>
  <rect width="100%" height="100%" fill="url(#paw-pattern)" />
</svg> 